<svg xmlns="http://www.w3.org/2000/svg" xmlns:svg="http://www.w3.org/2000/svg" id="svg2" width="2160" height="2160" version="1.1"><metadata id="metadata7"/><g id="layer1" transform="translate(0,1107.675)"><rect style="fill:red;fill-opacity:1;fill-rule:evenodd;stroke:#000;stroke-width:.67550117px;stroke-linecap:butt;stroke-linejoin:miter;stroke-opacity:1" id="rect3023-6-9-5-7-9-7-4" width="179.325" height="989.325" x="-2159.662" y="28.013" transform="scale(-1,-1)"/><rect style="fill:red;fill-opacity:1;fill-rule:evenodd;stroke:#000;stroke-width:.67550117px;stroke-linecap:butt;stroke-linejoin:miter;stroke-opacity:1" id="rect3023-6-9-5-7-9-7" width="179.325" height="989.325" x="-179.662" y="-961.987" transform="scale(-1,-1)"/><rect style="fill:red;fill-opacity:1;fill-rule:evenodd;stroke:#000;stroke-width:.67550117px;stroke-linecap:butt;stroke-linejoin:miter;stroke-opacity:1" id="rect3023-6-9-5-7-9" width="179.325" height="989.325" x="928.013" y="90.338" transform="matrix(0,-1,1,0,0,0)"/><rect style="fill:#fff;fill-opacity:1;fill-rule:evenodd;stroke:none;stroke-width:.35297563999999998px;stroke-linecap:butt;stroke-linejoin:miter;stroke-opacity:1" id="rect3023-6" width="179.647" height="269.647" x="837.851" y=".176" transform="matrix(0,-1,1,0,0,0)"/><rect style="fill:#fff;fill-opacity:1;fill-rule:evenodd;stroke:none;stroke-width:.35297563999999998px;stroke-linecap:butt;stroke-linejoin:miter;stroke-opacity:1" id="rect3023-6-5-1-5" width="179.647" height="269.647" x="-2069.823" y="837.851" transform="scale(-1,-1)"/><rect style="fill:#fff;fill-opacity:1;fill-rule:evenodd;stroke:none;stroke-width:.35999999999999999;stroke-linecap:butt;stroke-linejoin:miter;stroke-opacity:1;stroke-miterlimit:4;stroke-dasharray:none" id="rect3023-6-5-1-5-8" width="179.647" height="269.647" x="-269.824" y="837.851" transform="scale(-1,-1)"/><rect style="fill:#fff;fill-opacity:1;fill-rule:evenodd;stroke:none;stroke-width:.35297563999999998px;stroke-linecap:butt;stroke-linejoin:miter;stroke-opacity:1" id="rect3023-6-9" width="179.647" height="269.647" x="837.851" y="1890.177" transform="matrix(0,-1,1,0,0,0)"/><rect style="fill:#fff;fill-opacity:1;fill-rule:evenodd;stroke:none;stroke-width:.99699658000000002px;stroke-linecap:butt;stroke-linejoin:miter;stroke-opacity:1" id="rect3023-6-9-9" width="179.003" height="2159.003" x="-961.826" y=".498" transform="matrix(0,-1,1,0,0,0)"/><rect style="fill:#0f0;fill-opacity:1;stroke:none" id="rect4126" width="90" height="90" x="0" y="-1107.675"/><rect style="fill:#0f0;fill-opacity:1;stroke:none" id="rect4126-8" width="90" height="90" x="2070" y="-1107.675"/><rect style="fill:#0f0;fill-opacity:1;stroke:none" id="rect4126-7" width="2160" height="90" x="0" y="962.325"/></g></svg>