<svg xmlns="http://www.w3.org/2000/svg" xmlns:svg="http://www.w3.org/2000/svg" id="svg2" width="2160" height="2160" version="1.1"><metadata id="metadata7"/><g id="layer1" transform="translate(0,1107.675)"><path style="fill:#fff;fill-opacity:1;stroke:none" id="path6110" d="m 502.85715,211.42857 c 0,41.02687 -33.25884,74.28572 -74.28571,74.28572 -41.02686,0 -74.28571,-33.25885 -74.28571,-74.28572 0,-41.02686 33.25885,-74.28571 74.28571,-74.28571 41.02687,0 74.28571,33.25885 74.28571,74.28571 z" transform="matrix(1.2115385,0,0,1.2115385,-159.2308,-1003.8289)"/><path style="fill:#fff;fill-opacity:1;stroke:none" id="path6110-5-9-1" d="m 502.85715,211.42857 c 0,41.02687 -33.25884,74.28572 -74.28571,74.28572 -41.02686,0 -74.28571,-33.25885 -74.28571,-74.28572 0,-41.02686 33.25885,-74.28571 74.28571,-74.28571 41.02687,0 74.28571,33.25885 74.28571,74.28571 z" transform="matrix(1.2115385,0,0,1.2115385,560.7692,-1003.8289)"/><path style="fill:#fff;fill-opacity:1;stroke:none" id="path6110-5-9-30" d="m 502.85715,211.42857 c 0,41.02687 -33.25884,74.28572 -74.28571,74.28572 -41.02686,0 -74.28571,-33.25885 -74.28571,-74.28572 0,-41.02686 33.25885,-74.28571 74.28571,-74.28571 41.02687,0 74.28571,33.25885 74.28571,74.28571 z" transform="matrix(1.2115385,0,0,1.2115385,1280.7692,-1003.8289)"/><path style="fill:#fff;fill-opacity:1;stroke:none" id="path6110-3" d="m 502.85715,211.42857 c 0,41.02687 -33.25884,74.28572 -74.28571,74.28572 -41.02686,0 -74.28571,-33.25885 -74.28571,-74.28572 0,-41.02686 33.25885,-74.28571 74.28571,-74.28571 41.02687,0 74.28571,33.25885 74.28571,74.28571 z" transform="matrix(1.2115385,0,0,1.2115385,-159.2308,-283.82886)"/><path style="fill:#fff;fill-opacity:1;stroke:none" id="path6110-5-9-1-8" d="m 502.85715,211.42857 c 0,41.02687 -33.25884,74.28572 -74.28571,74.28572 -41.02686,0 -74.28571,-33.25885 -74.28571,-74.28572 0,-41.02686 33.25885,-74.28571 74.28571,-74.28571 41.02687,0 74.28571,33.25885 74.28571,74.28571 z" transform="matrix(1.2115385,0,0,1.2115385,560.7692,-283.82886)"/><path style="fill:#fff;fill-opacity:1;stroke:none" id="path6110-5-9-30-5" d="m 502.85715,211.42857 c 0,41.02687 -33.25884,74.28572 -74.28571,74.28572 -41.02686,0 -74.28571,-33.25885 -74.28571,-74.28572 0,-41.02686 33.25885,-74.28571 74.28571,-74.28571 41.02687,0 74.28571,33.25885 74.28571,74.28571 z" transform="matrix(1.2115385,0,0,1.2115385,1280.7692,-283.82886)"/><path style="fill:#fff;fill-opacity:1;stroke:none" id="path6110-18" d="m 502.85715,211.42857 c 0,41.02687 -33.25884,74.28572 -74.28571,74.28572 -41.02686,0 -74.28571,-33.25885 -74.28571,-74.28572 0,-41.02686 33.25885,-74.28571 74.28571,-74.28571 41.02687,0 74.28571,33.25885 74.28571,74.28571 z" transform="matrix(1.2115385,0,0,1.2115385,-159.2308,436.17114)"/><path style="fill:#fff;fill-opacity:1;stroke:none" id="path6110-5-9-1-4" d="m 502.85715,211.42857 c 0,41.02687 -33.25884,74.28572 -74.28571,74.28572 -41.02686,0 -74.28571,-33.25885 -74.28571,-74.28572 0,-41.02686 33.25885,-74.28571 74.28571,-74.28571 41.02687,0 74.28571,33.25885 74.28571,74.28571 z" transform="matrix(1.2115385,0,0,1.2115385,560.7692,436.17114)"/><path style="fill:#fff;fill-opacity:1;stroke:none" id="path6110-5-9-30-57" d="m 502.85715,211.42857 c 0,41.02687 -33.25884,74.28572 -74.28571,74.28572 -41.02686,0 -74.28571,-33.25885 -74.28571,-74.28572 0,-41.02686 33.25885,-74.28571 74.28571,-74.28571 41.02687,0 74.28571,33.25885 74.28571,74.28571 z" transform="matrix(1.2115385,0,0,1.2115385,1280.7692,436.17114)"/><rect style="fill:#0f0;fill-opacity:1;stroke:none" id="rect3226" width="2160" height="2160" x="0" y="-1107.675"/></g></svg>