<svg xmlns="http://www.w3.org/2000/svg" xmlns:svg="http://www.w3.org/2000/svg" id="svg2" width="2160" height="2160" version="1.1"><metadata id="metadata7"/><g id="layer1" transform="translate(0,1107.675)"><rect style="fill:#fff;fill-opacity:1;fill-rule:evenodd;stroke:none;stroke-width:1px;stroke-linecap:butt;stroke-linejoin:miter;stroke-opacity:1" id="rect3023" width="180" height="2160" x="-961.825" y=".5" transform="matrix(0,-1,1,0,0,0)"/><rect style="fill:#fff;fill-opacity:1;fill-rule:evenodd;stroke:none;stroke-width:1px;stroke-linecap:butt;stroke-linejoin:miter;stroke-opacity:1" id="rect3023-6" width="180" height="2160" x="838.175" y=".5" transform="matrix(0,-1,1,0,0,0)"/><rect style="fill:#ff0;fill-opacity:1" id="rect3837" width="90" height="360" x="-17.325" y="91" transform="matrix(0,-1,1,0,0,0)"/><rect style="fill:#ff0;fill-opacity:1" id="rect3837-6" width="90" height="360" x="-17.325" y="631" transform="matrix(0,-1,1,0,0,0)"/><rect style="fill:#ff0;fill-opacity:1" id="rect3837-6-9" width="90" height="360" x="-17.325" y="1171" transform="matrix(0,-1,1,0,0,0)"/><rect style="fill:#ff0;fill-opacity:1" id="rect3837-6-9-8" width="90" height="360" x="-17.325" y="1711" transform="matrix(0,-1,1,0,0,0)"/><rect style="fill:#0f0;fill-opacity:1;stroke:none" id="rect3282" width="2160" height="90" x="0" y="-1107.675"/><rect style="fill:#0f0;fill-opacity:1;stroke:none" id="rect3282-5" width="2160" height="90" x="0" y="962.325"/></g></svg>