<svg xmlns="http://www.w3.org/2000/svg" xmlns:svg="http://www.w3.org/2000/svg" id="svg2" width="2160" height="2160" version="1.1"><defs id="defs4"><marker id="Arrow1Send" orient="auto" refX="0" refY="0" style="overflow:visible"><path id="path4264" d="M 0.0,0.0 L 5.0,-5.0 L -12.5,0.0 L 5.0,5.0 L 0.0,0.0 z" transform="scale(0.2) rotate(180) translate(6,0)" style="fill-rule:evenodd;stroke:#000;stroke-width:1pt"/></marker><marker id="SquareL" orient="auto" refX="0" refY="0" style="overflow:visible"><path id="path4319" d="M -5.0,-5.0 L -5.0,5.0 L 5.0,5.0 L 5.0,-5.0 L -5.0,-5.0 z" transform="scale(0.8)" style="fill-rule:evenodd;stroke:#000;stroke-width:1pt"/></marker></defs><metadata id="metadata7"/><g id="layer1" transform="translate(0,1107.675)" style="display:none"><path style="fill:#000;fill-opacity:0;stroke:#ff0;stroke-width:77.72903442;stroke-linecap:square;stroke-linejoin:round;stroke-miterlimit:4;stroke-opacity:1;stroke-dasharray:310.91615004,155.45807502;stroke-dashoffset:388.64513303" id="path4165" d="m 133.34015,-518.92456 c 0,493.176393 -399.79846,892.97485 -892.97485,892.97485 -493.1764,0 -892.9749,-399.798457 -892.9749,-892.97485 0,-493.17644 399.7985,-892.97484 892.9749,-892.97484 493.17639,0 892.97485,399.7984 892.97485,892.97484 z" transform="matrix(1.1589981,0,0,1.158998,925.41524,-461.24244)"/><path style="fill:#000;fill-opacity:0;stroke:#ff0;stroke-width:77.72903442;stroke-linecap:square;stroke-linejoin:round;stroke-miterlimit:4;stroke-opacity:1;stroke-dasharray:310.91615004,155.45807502;stroke-dashoffset:388.64513303" id="path4165-9" d="m 133.34015,-518.92456 c 0,493.176393 -399.79846,892.97485 -892.97485,892.97485 -493.1764,0 -892.9749,-399.798457 -892.9749,-892.97485 0,-493.17644 399.7985,-892.97484 892.9749,-892.97484 493.17639,0 892.97485,399.7984 892.97485,892.97484 z" transform="matrix(1.1589981,0,0,1.158998,925.41524,1698.7576)"/></g><g id="layer2"><path style="fill:#0f0;fill-opacity:1;stroke:none" id="rect3180" d="m 0,0 0,2160 2160,0 0,-2160 z m 0,0 1953.0595,0 28.2843,403.625 -301.0313,726.75 -556.25,556.25 -726.75,301.0312 L 0,1980 z"/></g><g style="display:inline" id="g4239" transform="translate(0,1107.675)"><path id="path4241" d="m 133.34015,-518.92456 c 0,493.176393 -399.79846,892.97485 -892.97485,892.97485 -493.1764,0 -892.9749,-399.798457 -892.9749,-892.97485 0,-493.17644 399.7985,-892.97484 892.9749,-892.97484 493.17639,0 892.97485,399.7984 892.97485,892.97484 z" transform="matrix(1.2083663,0,0,1.2083662,917.9171,-480.62412)" style="fill:#000;fill-opacity:0;stroke:#ff0;stroke-width:76.04482499;stroke-linecap:square;stroke-linejoin:round;stroke-miterlimit:4;stroke-opacity:1;stroke-dasharray:152.08964997,304.17929994;stroke-dashoffset:296.57483336;marker-start:none;marker-mid:none"/><path style="fill:none;stroke:#fff;stroke-width:180;stroke-linecap:square;stroke-linejoin:miter;stroke-miterlimit:4;stroke-opacity:1;stroke-dasharray:none;stroke-dashoffset:651.45622058" id="path3835" d="M -771.51735,1864.9218 -1425.5782,1427.8923 -1862.6077,773.83151 -2016.072,2.3141522 -1862.6077,-769.20321 -1425.5782,-1423.2641 -771.51738,-1860.2935 -1.7123752e-5,-2013.7579 771.51735,-1860.2935 1425.5782,-1423.2641 1862.6077,-769.20324 2016.072,2.314118 1862.6077,773.83148 1425.5782,1427.8923 771.51738,1864.9218 1.7123752e-5,2018.3862 z" transform="matrix(0.83146961,-0.55557023,0.55557023,0.83146961,-1.2856646,-1107.285)"/><path style="fill:#0f0;stroke:#fff;stroke-width:180;stroke-linecap:square;stroke-linejoin:miter;stroke-miterlimit:4;stroke-opacity:1;stroke-dasharray:none;stroke-dashoffset:651.45622057999992194;fill-opacity:1" id="path3867" d="M 5.2294274e-6,195.16505 C 1.4273274,195.16505 -139.0118,136.99327 -138.00253,138.00254 -136.99326,139.01181 -195.16505,-1.4273169 -195.16505,5.2294275e-6 -195.16505,1.4273274 -136.99327,-139.0118 -138.00254,-138.00253 -139.01181,-136.99326 1.4273169,-195.16505 -5.2294276e-6,-195.16505 -1.4273274,-195.16505 139.0118,-136.99327 138.00253,-138.00254 136.99326,-139.01181 195.16505,1.4273169 195.16505,-5.2294276e-6 195.16505,-1.4273274 136.99327,139.0118 138.00254,138.00253 139.01181,136.99326 -1.4273169,195.16505 5.2294274e-6,195.16505 z" transform="matrix(0.92387953,-0.38268343,0.38268343,0.92387953,0,-1107.675)"/></g></svg>